<svg width="120" height="64" viewBox="0 0 120 64" fill="none"
  xmlns="http://www.w3.org/2000/svg">
  <path d="M64.9062 0.162598C47.3094 0.162598 33.0406 14.4313 33.0406 32.0282C33.0406 49.6251 47.3094 63.8938 64.9062 63.8938C82.5031 63.8938 96.7718 49.6251 96.7718 32.0282C96.7718 14.4313 82.5031 0.162598 64.9062 0.162598ZM64.9062 49.2688C55.3906 49.2688 47.675 41.5532 47.675 32.0376C47.675 22.522 55.3906 14.8063 64.9062 14.8063C74.4218 14.8063 82.1375 22.522 82.1375 32.0376C82.1468 41.5532 74.4218 49.2688 64.9062 49.2688Z" fill="#FEF033"/>
  <path d="M6.93126 30.172H5.60938V26.3845C4.07188 26.3845 2.81563 25.9345 1.85 25.0345C0.884376 24.1345 0.40625 23.0001 0.40625 21.6501C0.40625 20.3001 0.884376 19.1658 1.85 18.2658C2.81563 17.3658 4.0625 16.9064 5.60938 16.9064V12.9314H6.93126V16.9064C8.46876 16.9064 9.72501 17.3564 10.6906 18.2658C11.6563 19.1658 12.1438 20.3001 12.1438 21.6501C12.1438 23.0001 11.6563 24.1345 10.6906 25.0345C9.72501 25.9345 8.46876 26.3845 6.93126 26.3845V30.172ZM2.79688 24.1626C3.50938 24.8189 4.44688 25.147 5.60938 25.147V18.1439C4.44688 18.1439 3.50938 18.472 2.79688 19.1376C2.08438 19.7939 1.71875 20.6283 1.71875 21.6408C1.72813 22.672 2.08438 23.5064 2.79688 24.1626ZM9.75314 19.1376C9.04064 18.4814 8.10313 18.1439 6.94063 18.1439V25.1564C8.10313 25.1564 9.04064 24.8283 9.75314 24.172C10.4656 23.5158 10.8313 22.6814 10.8313 21.6501C10.8219 20.6376 10.4563 19.8033 9.75314 19.1376Z" fill="black"/>
  <path d="M16.0062 18.2846C16.9156 17.3659 18.0031 16.9065 19.2969 16.9065C20.5812 16.9065 21.6781 17.3659 22.5781 18.2846C23.4781 19.2034 23.9281 20.319 23.9281 21.6502C23.9281 22.9815 23.4781 24.0971 22.5781 25.0159C21.6781 25.9252 20.5812 26.3846 19.2969 26.3846C18.0125 26.3846 16.9156 25.9346 16.0062 25.0159C15.1062 24.1065 14.6562 22.9815 14.6562 21.6502C14.6562 20.319 15.1062 19.2034 16.0062 18.2846ZM21.6312 19.1659C20.9844 18.4909 20.1969 18.1534 19.2875 18.1534C18.3781 18.1534 17.6 18.4909 16.9437 19.1659C16.2969 19.8409 15.9687 20.6659 15.9687 21.6502C15.9687 22.6252 16.2969 23.4502 16.9437 24.1346C17.6 24.819 18.3781 25.1565 19.2875 25.1565C20.1969 25.1565 20.975 24.819 21.6312 24.144C22.2875 23.469 22.6062 22.644 22.6062 21.6596C22.6062 20.6659 22.2781 19.8409 21.6312 19.1659Z" fill="black"/>
  <path d="M33.0594 22.222H27.8562V26.197H26.5344V17.1033H27.8562V20.9845H33.0594V17.1033H34.3906V26.197H33.0594V22.222Z" fill="black"/>
  <path d="M46.9437 28.4751H45.6219V26.1969H38.3281V28.4751H37.0062V24.9688H37.6625C37.7 24.9313 37.7562 24.8657 37.8312 24.7813C37.9062 24.6876 38.0375 24.4907 38.225 24.1813C38.4125 23.8626 38.5719 23.5251 38.7219 23.1594C38.8625 22.7938 38.9937 22.3063 39.1062 21.6876C39.2187 21.0782 39.275 20.4313 39.275 19.7657V17.1125H45.5187V24.9688H46.9437V28.4751ZM40.5969 19.7563C40.5969 20.7969 40.475 21.7438 40.2219 22.6063C39.9687 23.4688 39.7156 24.0782 39.4625 24.4344L39.0875 24.9594H44.1968V18.3313H40.5969V19.7563Z" fill="black"/>
  <path d="M17.1594 36.0409C17.1594 37.1846 17.45 38.0659 18.0407 38.6752C18.6313 39.2846 19.475 39.5846 20.5625 39.5846C21.2375 39.5846 21.8938 39.4721 22.5313 39.2471C23.1688 39.0221 23.6282 38.7971 23.9188 38.5721L24.3875 38.2252V30.1721H28.4751V49.269H24.3875V42.1815C23.2063 42.9127 21.7063 43.269 19.8875 43.2596C17.7594 43.2596 16.0907 42.6315 14.8813 41.3659C13.6719 40.1096 13.0719 38.3284 13.0719 36.0409V30.1721H17.1594V36.0409Z" fill="black"/>
  <path d="M35.7031 43.8033C35.8438 44.5346 36.2281 45.1439 36.8656 45.6502C37.4938 46.1564 38.2906 46.4002 39.2469 46.4002C39.9406 46.4002 40.5781 46.2689 41.1688 45.9971C41.7594 45.7252 42.1719 45.4533 42.4156 45.1814L42.8 44.7689L44.7031 47.2158L44.4594 47.4596C44.3469 47.5721 44.1125 47.7596 43.7469 48.0221C43.3813 48.2846 42.9969 48.5283 42.5844 48.7346C42.1719 48.9408 41.6469 49.1283 40.9906 49.2877C40.3344 49.4471 39.6688 49.5314 38.975 49.5314C37.0156 49.5314 35.3375 48.8471 33.95 47.4877C32.5625 46.1283 31.8688 44.4877 31.8688 42.5846C31.8688 40.6721 32.5531 39.0408 33.9219 37.6814C35.2906 36.3221 36.9313 35.6377 38.8344 35.6377C40.7469 35.6377 42.3313 36.2752 43.6063 37.5502C44.8719 38.8252 45.5094 40.4189 45.5094 42.3221L45.3781 43.8127H35.7031V43.8033ZM36.8563 39.4533C36.3125 39.9033 35.9281 40.4939 35.7031 41.2252H41.8438C41.7031 40.5127 41.3656 39.9314 40.8219 39.4627C40.2875 39.0033 39.6219 38.7689 38.8438 38.7689C38.0656 38.7689 37.4 39.0033 36.8563 39.4533Z" fill="black"/>
  <path d="M47.3656 35.9001H59.5156V39.4533H55.2781V49.2689H51.6031V39.4533H47.3656V35.9001Z" fill="black"/>
  <path d="M68.7594 35.9001C70.0906 35.9001 71.1688 36.2658 72.0125 36.9876C72.8469 37.7189 73.2688 38.5814 73.2688 39.5845C73.2688 40.1845 73.1282 40.7189 72.8563 41.1689C72.5844 41.6189 72.3032 41.9189 72.0313 42.0595L71.6282 42.3127C71.6844 42.3314 71.7594 42.3595 71.8532 42.397C71.9469 42.4345 72.125 42.5283 72.3875 42.697C72.6407 42.8658 72.875 43.0439 73.0625 43.2595C73.25 43.4658 73.4282 43.7564 73.5782 44.122C73.7375 44.4877 73.8125 44.8814 73.8125 45.322C73.8125 46.447 73.3813 47.3939 72.5188 48.1439C71.6563 48.8939 70.4938 49.2783 69.0313 49.2783H62.0844V35.9001H68.7594ZM68.4781 38.9095H65.75V41.0939H68.4781C69.2094 41.0939 69.5656 40.7283 69.5656 40.0064C69.575 39.2752 69.2094 38.9095 68.4781 38.9095ZM65.75 43.5408V46.2689H68.7594C69.1719 46.2689 69.5094 46.1377 69.7531 45.8845C69.9969 45.6314 70.1188 45.2939 70.1188 44.9002C70.1188 44.497 69.9969 44.1783 69.7531 43.9252C69.5094 43.672 69.1719 43.5502 68.7594 43.5502H65.75V43.5408Z" fill="black"/>
  <path d="M79.9343 43.8033C80.075 44.5346 80.4593 45.1439 81.0968 45.6502C81.725 46.1564 82.5218 46.4002 83.4781 46.4002C84.1718 46.4002 84.8093 46.2689 85.4 45.9971C85.9906 45.7252 86.4031 45.4533 86.6468 45.1814L87.0312 44.7689L88.9343 47.2158L88.6812 47.4596C88.5687 47.5721 88.3343 47.7596 87.9687 48.0221C87.6031 48.2846 87.2187 48.5283 86.8062 48.7346C86.3937 48.9408 85.8687 49.1283 85.2125 49.2877C84.5562 49.4471 83.8906 49.5314 83.1968 49.5314C81.2375 49.5314 79.5593 48.8471 78.1718 47.4877C76.7843 46.1283 76.0906 44.4877 76.0906 42.5846C76.0906 40.6721 76.775 39.0408 78.1437 37.6814C79.5125 36.3221 81.1531 35.6377 83.0562 35.6377C84.9593 35.6377 86.5531 36.2752 87.8281 37.5502C89.0937 38.8252 89.7312 40.4189 89.7312 42.3221L89.6 43.8127H79.9343V43.8033ZM81.0875 39.4533C80.5437 39.9033 80.1593 40.4939 79.9343 41.2252H86.075C85.9343 40.5127 85.5875 39.9314 85.0531 39.4627C84.5187 39.0033 83.8625 38.7689 83.075 38.7689C82.2968 38.7689 81.6312 39.0033 81.0875 39.4533Z" fill="black"/>
  <path d="M98.3563 49.0626C97.6907 48.7439 97.2313 48.4345 96.9501 48.1251L96.5376 47.6283V54.997H92.8625V35.9001H96.5376V37.5314C96.5751 37.4751 96.6219 37.4095 96.7063 37.3345C96.7907 37.2595 96.9407 37.1095 97.1844 36.8845C97.4282 36.6595 97.6907 36.472 97.9813 36.2939C98.2626 36.1251 98.6376 35.9658 99.0876 35.8251C99.5376 35.6845 100.006 35.6189 100.503 35.6189C102.238 35.6189 103.738 36.2939 105.013 37.6345C106.288 38.9751 106.925 40.6251 106.925 42.5658C106.925 44.5064 106.288 46.1564 105.013 47.497C103.738 48.8376 102.238 49.5126 100.503 49.5126C99.7344 49.5314 99.0219 49.3814 98.3563 49.0626ZM97.5032 39.9408C96.8657 40.6251 96.5469 41.5064 96.5469 42.5845C96.5469 43.6626 96.8657 44.5439 97.5032 45.2376C98.1407 45.9314 98.9188 46.2783 99.8282 46.2783C100.738 46.2783 101.506 45.9314 102.144 45.2376C102.781 44.5439 103.1 43.6626 103.1 42.5845C103.1 41.5064 102.781 40.6251 102.144 39.9408C101.506 39.2564 100.738 38.9095 99.8282 38.9095C98.9188 38.9095 98.1407 39.247 97.5032 39.9408Z" fill="black"/>
  <path d="M119.759 39.3033H113.75V49.2689H110.075V35.9001H119.759V39.3033Z" fill="black"/>
</svg>
